<svg width="1080" height="1080" viewBox="0 0 1080 1080" fill="none" xmlns="http://www.w3.org/2000/svg">
<g clip-path="url(#clip0_8_84)">
<rect width="1080" height="1080" fill="#030303"/>
<path d="M239.093 507.362C236.491 505.808 234.171 503.848 232.312 501.258C234.216 503.353 236.593 505.493 239.093 507.362Z" fill="white"/>
<path d="M853.261 616.841H228.361C223.646 599.644 220.266 581.907 218.443 563.695H863.163C861.354 581.907 857.965 599.644 853.261 616.841Z" fill="white"/>
<path d="M682.522 822.563H399.17C375.359 810.953 353.204 796.528 333.092 779.701H687.416C703.913 779.701 717.413 766.207 717.413 749.704C717.413 733.207 703.913 719.707 687.416 719.707H277.462C265.545 703.095 255.175 685.315 246.516 666.562H835.167C803.833 734.543 749.719 789.826 682.522 822.563Z" fill="white"/>
<path d="M439.031 255.217H710.622C734.686 270.049 756.623 287.963 775.969 308.362H477.322C469.05 287.61 455.829 269.387 439.031 255.217Z" fill="white"/>
<path d="M272.351 466.022C294.728 482.644 322.36 492.595 352.389 492.595C382.408 492.595 410.04 482.644 432.417 466.022H774.954C791.458 466.022 804.951 452.516 804.951 436.026C804.951 419.526 791.458 406.019 774.954 406.019H477.985C483.695 391.098 486.964 374.962 486.964 358.031H814.745C843.642 403.6 861.509 456.823 864.493 514.021H217.406C218.278 497.676 220.322 481.639 223.514 466.022H272.351Z" fill="white"/>
</g>
<defs>
<clipPath id="clip0_8_84">
<rect width="1080" height="1080" fill="white"/>
</clipPath>
</defs>
</svg>
